<?xml version="1.0" encoding="utf-8"?>
<!-- Generator: Adobe Illustrator 25.0.0, SVG Export Plug-In . SVG Version: 6.00 Build 0)  -->
<svg version="1.1" id="Layer_1" xmlns="http://www.w3.org/2000/svg" xmlns:xlink="http://www.w3.org/1999/xlink" x="0px" y="0px"
	 viewBox="0 0 424.4 211.6" style="enable-background:new 0 0 424.4 211.6;" xml:space="preserve">
<style type="text/css">
	.st0{fill:#010101;}
	.st1{fill:#FFCF37;}
	.st2{fill:#FFFFFF;}
</style>
<g id="layer5" transform="translate(0,-882.28411)">
	<path id="path3481" class="st0" d="M274.7,951.8c0,34.7-28.1,62.8-62.8,62.8s-62.8-28.1-62.8-62.7c0-34.7,28.1-62.8,62.7-62.8
		C246.6,889,274.7,917.1,274.7,951.8"/>
</g>
<g id="layer2" transform="translate(0,-882.28411)">
	<path id="path3402" class="st1" d="M211.9,882.3c-39.6,0-71.8,32.2-71.7,71.8c0,39.6,32.2,71.8,71.8,71.8
		c39.6,0,71.8-32.2,71.8-71.8V954C283.7,914.4,251.5,882.3,211.9,882.3z M211.6,897.7c31.1,0,56.2,25.1,56.3,56.2v0.1
		c0,31.1-25.2,56.2-56.2,56.2c-31.1,0-56.2-25.2-56.3-56.2C155.4,922.9,180.5,897.7,211.6,897.7z"/>
</g>
<g id="layer4" transform="translate(0,-882.28411)">
	<g id="text3351" transform="matrix(0.70710678,-0.70710678,0.70710678,0.70710678,0,0)">
		<path id="path3345" class="st2" d="M-564.8,850.2h17.3v-33.3c0-1.4,0.1-3,0.7-4.4c1.1-2.9,3.7-6.4,8.3-6.4c5.6,0,8.2,4.9,8.2,12.2
			v32.1h17.3v-33.5c0-1.4,0.2-3.3,0.7-4.6c1.2-3.4,4.1-6.2,8.2-6.2c5.7,0,8.4,4.8,8.4,13.1v31.1h17.3v-33.7
			c0-17.1-8.3-24.8-19.3-24.8c-4.2,0-7.7,0.9-10.9,2.8c-2.7,1.6-5.3,3.9-7.4,6.9h-0.2c-2.5-6-8.3-9.7-15.7-9.7
			c-9.8,0-14.9,5.4-17.3,9h-0.4l-0.8-7.7h-15c0.2,5,0.5,11.1,0.5,18.2L-564.8,850.2L-564.8,850.2z"/>
	</g>
</g>
<g id="layer4_1_" transform="translate(0,-882.28411)">
	<g id="text3345_1_">
		<path id="path3348_1_" class="st0" d="M0.2,1092.8h15.1v-29c0-1.2,0.1-2.6,0.6-3.9c0.9-2.5,3.3-5.6,7.2-5.6
			c4.9,0,7.1,4.3,7.1,10.6v27.9h15.1v-29.1c0-1.2,0.2-2.9,0.6-4c1-3,3.6-5.4,7.1-5.4c5,0,7.3,4.2,7.3,11.4v27.1h15.1v-29.3
			c0-14.9-7.2-21.6-16.8-21.6c-3.7,0-6.7,0.8-9.5,2.4c-2.3,1.4-4.6,3.4-6.4,6h-0.2c-2.1-5.2-7.2-8.5-13.6-8.5
			c-8.6,0-12.9,4.7-15.1,7.8h-0.3l-0.7-6.7h-13c0.2,4.4,0.4,9.7,0.4,15.9L0.2,1092.8L0.2,1092.8z"/>
		<path id="path3350_1_" class="st0" d="M129,1072.8c0.2-1.1,0.5-3.5,0.5-6.1c0-12.3-6.1-24.9-22.2-24.9c-17.3,0-25.2,14-25.2,26.6
			c0,15.6,9.7,25.5,26.6,25.5c6.7,0,12.9-1.1,18-3.2l-2-10.5c-4.2,1.3-8.5,2-13.7,2c-7.2,0-13.5-3.1-14.1-9.5L129,1072.8L129,1072.8
			z M96.9,1062.2c0.4-4.2,3.1-10.1,9.6-10.1c7.1,0,8.8,6.3,8.8,10.1H96.9z"/>
		<path id="path3352_1_" class="st0" d="M138.3,1032.2v10.8h-6.6v11.4h6.6v20.4c0,7,1.4,11.8,4.3,14.8c2.4,2.5,6.6,4.4,11.6,4.4
			c4.4,0,8-0.6,10.1-1.4l-0.1-11.7c-1.1,0.2-2.6,0.4-4.6,0.4c-4.7,0-6.1-2.7-6.1-8.8v-18h11.1V1043h-11.1v-14.3L138.3,1032.2
			L138.3,1032.2z"/>
		<path id="path3354_1_" class="st0" d="M212.5,1063.3c0-11.7-5.3-21.5-21.9-21.5c-9.1,0-15.9,2.4-19.4,4.4l2.9,10
			c3.3-2,8.7-3.8,13.7-3.8c7.6,0,9.1,3.8,9.1,6.4v0.7c-17.6-0.1-29.2,6.1-29.2,19c0,7.9,6,15.3,16.1,15.3c5.9,0,11-2.1,14.3-6.1h0.3
			l0.9,5h14c-0.5-2.7-0.7-7.3-0.7-12.1V1063.3z M197.4,1074.7c0,0.9-0.1,1.8-0.3,2.6c-1,3.2-4.2,5.7-8,5.7c-3.5,0-6.1-1.9-6.1-5.9
			c0-6,6.3-7.9,14.5-7.8V1074.7L197.4,1074.7z"/>
		<path id="path3356_1_" class="st0" d="M257.7,1080c-2.3,1-5.2,1.6-8.9,1.6c-7.5,0-13.6-4.8-13.6-14c-0.1-8.1,5.2-14,13.3-14
			c4.1,0,6.8,0.7,8.7,1.5l2.4-11.5c-3.3-1.2-7.7-1.9-11.8-1.9c-18.5,0-28.5,11.9-28.5,26.5c0,15.7,10.3,25.6,26.4,25.6
			c5.9,0,11.1-1.1,13.9-2.3L257.7,1080L257.7,1080z"/>
		<path id="path3358_1_" class="st0" d="M265.5,1092.8H281v-25.3c0-1.2,0.1-2.4,0.3-3.5c1-4.8,4.9-7.8,10.6-7.8
			c1.7,0,3.1,0.2,4.2,0.5v-14.7c-1.1-0.2-1.8-0.2-3.3-0.2c-4.8,0-10.9,3.1-13.4,10.3H279l-0.5-9.2h-13.3c0.2,4.3,0.4,9.1,0.4,16.4
			V1092.8z"/>
		<path id="path3360_1_" class="st0" d="M317,1092.8V1043h-15.5v49.8H317z M309.2,1021.3c-5,0-8.2,3.4-8.1,7.8
			c-0.1,4.3,3.2,7.7,8,7.7c5.1,0,8.4-3.5,8.4-7.7C317.4,1024.6,314.2,1021.3,309.2,1021.3z"/>
		<path id="path3362_1_" class="st0" d="M328.8,1032.2v10.8h-6.6v11.4h6.6v20.4c0,7,1.4,11.8,4.3,14.8c2.4,2.5,6.6,4.4,11.6,4.4
			c4.4,0,8-0.6,10.1-1.4l-0.1-11.7c-1.1,0.2-2.6,0.4-4.6,0.4c-4.7,0-6.1-2.7-6.1-8.8v-18h11.1V1043H344v-14.3L328.8,1032.2
			L328.8,1032.2z"/>
		<path id="path3364_1_" class="st0" d="M376.9,1092.8V1043h-15.5v49.8H376.9z M369.2,1021.3c-5,0-8.2,3.4-8.1,7.8
			c-0.1,4.3,3.2,7.7,8,7.7c5.1,0,8.4-3.5,8.4-7.7C377.4,1024.6,374.2,1021.3,369.2,1021.3z"/>
		<path id="path3366_1_" class="st0" d="M422.2,1080c-2.3,1-5.2,1.6-8.9,1.6c-7.5,0-13.6-4.8-13.6-14c-0.1-8.1,5.2-14,13.3-14
			c4.1,0,6.8,0.7,8.7,1.5l2.4-11.5c-3.3-1.2-7.7-1.9-11.8-1.9c-18.5,0-28.5,11.9-28.5,26.5c0,15.7,10.3,25.6,26.4,25.6
			c5.9,0,11.1-1.1,13.9-2.3L422.2,1080L422.2,1080z"/>
	</g>
</g>
</svg>
