<?xml version="1.0" encoding="utf-8"?>
<!-- Generator: Adobe Illustrator 25.0.0, SVG Export Plug-In . SVG Version: 6.00 Build 0)  -->
<svg version="1.1" id="Layer_1" xmlns="http://www.w3.org/2000/svg" xmlns:xlink="http://www.w3.org/1999/xlink" x="0px" y="0px"
	 viewBox="0 0 272.5 320.2" style="enable-background:new 0 0 272.5 320.2;" xml:space="preserve">
<style type="text/css">
	.st0{fill-rule:evenodd;clip-rule:evenodd;fill:#FB3209;}
	.st1{fill-rule:evenodd;clip-rule:evenodd;fill:#FFFFFF;}
</style>
<g>
	<path class="st0" d="M149.1,145.4h-2.1v-7h2.1v-5.6h8.2v5.6h3.2v7h-3.2v5.4c0,0.6,0.5,1.1,1.1,1.1c0.8,0,2.2,0,2.9,0v7.1h-4.7
		c-4,0-7.5-2.6-7.5-7.5V145.4L149.1,145.4z"/>
	<path class="st0" d="M172.9,138.7c7-1.1,12.2,3.1,12.5,9.9c0,6.3-6.3,10.6-12.1,10.6c-5.9,0-10.9-4-10.9-10.1c0-3.5,1.7-6.2,4.5-8
		c-1,0-2,0.1-2.9,0.3c-0.4,0.1-0.4,0-0.1-0.5c1.1-1.6,2.7-2.1,4.4-1.8l-1.8-1.5l1.5-1.3l1.6,2.4c0.7-1.6,2.7-2.7,4.2-1.5
		c0.1,0.1,0.2,0.2,0.2,0.2c0,0.2-0.2,0.1-0.4,0.2c-0.5,0.3-0.7,0.7-0.7,1.3L172.9,138.7L172.9,138.7z"/>
	<polygon class="st0" points="115.9,168.2 160.9,168.2 160.9,213.2 115.9,213.2 115.9,168.2 	"/>
	<path class="st1" d="M137,176.8c10.9-1.7,18.9,4.8,19.3,15.3c0,9.8-9.7,16.5-18.8,16.5c-9.2,0-16.8-6.2-16.8-15.7
		c-0.1-5.4,2.7-9.7,6.9-12.5c-1.5,0-3,0.1-4.5,0.4c-0.6,0.1-0.6,0-0.1-0.8c1.7-2.4,4.2-3.3,6.8-2.8l-2.7-2.4l2.3-1.9l2.5,3.7
		c1-2.4,4.2-4.2,6.5-2.4c0.2,0.2,0.3,0.2,0.3,0.3c0,0.3-0.3,0.1-0.6,0.3c-0.8,0.4-1.1,1.1-1.1,2L137,176.8L137,176.8z"/>
	<path class="st0" d="M104.8,114c6.4,0,11.4,3.5,11.4,10.7c0,7.3-5,10.7-11.4,10.7c-6.4,0-11.4-3.9-11.4-10.7
		C93.4,117.9,98.4,114,104.8,114L104.8,114z M102.3,121c0.5,0.3,0.9,0.6,1.1,1.1c0.3,0.7,0.1,1.3-0.7,1.4c-0.7,0.1-1-0.1-1.4-0.7
		c-0.3-0.5-0.7-1.2-1.3-1.5c-0.4-0.2-0.9-0.2-1.3,0c-1.3,0.4-1.4,1.8-0.4,2.6c0.5,0.4,1.6,0.6,2.3,0.8c0.5,0.1,1,0.4,0.9,0.9
		c0,0.5-0.4,0.6-0.8,0.6c-0.3,0-0.6,0-0.9,0c-0.7,0-1.4-0.1-1.9,0.5c-0.4,0.5-0.5,1.3-0.2,1.9c0.5,1.1,1.9,1,2.7,0.4
		c0.4-0.3,0.7-0.7,1.1-1.1c0.5-0.7,1.6-0.6,1.7,0.3c0,0.8-0.5,1.5-0.3,2.4c0.2,1.7,3.4,1.6,3.4-0.2c0-0.5-0.3-1-0.5-1.5
		c-0.5-1.3,0.6-2,1.5-1c0.7,0.7,0.9,1.5,1.9,2c3.3,1.9,4.5-2.3,1.5-3.3c-0.9-0.3-1.8-0.3-2.6-0.6c-1.3-0.5-1-1.9-0.1-2.2
		c1.1-0.2,2.1,0.1,2.8-0.8c0.6-0.8,0.5-1.9,0-2.7c-0.8-1-2.5-0.8-3.1,0.4c-0.2,0.4-0.3,0.8-0.4,1.2c-0.3,0.8-1,1.2-1.8,0.8
		c-0.8-0.4-0.7-1.3-0.5-2c0.1-0.3,0.2-0.7,0.3-1c0.1-0.6,0-1.3-0.4-1.7c-0.9-0.9-2.6-0.6-3.1,0.5C101.2,119.4,101.5,120.5,102.3,121
		L102.3,121z"/>
	<path class="st0" d="M76.2,137.8c6.3,0,11.2,3.5,11.2,10.7c0,7.3-4.9,10.7-11.2,10.7S65,155.4,65,148.6
		C65,141.7,69.9,137.8,76.2,137.8L76.2,137.8z M76.3,144.9c2,0,3.5,1.1,3.5,3.3c0,2.3-1.5,3.3-3.5,3.3c-2,0-3.5-1.2-3.5-3.3
		C72.7,146.1,74.3,144.9,76.3,144.9L76.3,144.9z"/>
	<path class="st0" d="M79.1,135h-8.2v-26.9h11.9c6.7,0,10.8,3.7,10.8,9.3c0,3.4-1.1,6.3-4.3,8l5.6,9.6h-9.3l-5.1-8.6h-1.3V135
		L79.1,135z M79.1,114.5v5.6h2.4c2.2,0,3.5-1.1,3.5-2.8c0-1.6-1.4-2.8-3.5-2.8H79.1L79.1,114.5z"/>
	<path class="st0" d="M133.8,121.6h-2.1v-7h2.1V109h8.2v5.6h3.2v7H142v5.4c0,0.6,0.5,1.1,1.1,1.1c0.8,0,2.2,0,2.9,0v7.1h-4.7
		c-4,0-7.5-2.6-7.5-7.5V121.6L133.8,121.6z"/>
	<path class="st0" d="M118.9,121.6h-2.1v-7h2.1V109h8.2v5.6h3.2v7h-3.2v5.4c0,0.6,0.5,1.1,1.1,1.1c0.8,0,2.2,0,2.9,0v7.1h-4.7
		c-4,0-7.5-2.6-7.5-7.5V121.6L118.9,121.6z"/>
	<polygon class="st0" points="67.8,139.8 60.9,139.8 60.9,158.9 53,158.9 53,139.8 46,139.8 46,132 67.8,132 67.8,139.8 	"/>
	<path class="st0" d="M132.3,137.8c2.1,0,4,1.1,5.2,2.8v-2.3h8v20.4h-8v-2.2c-1.3,1.8-3.2,2.7-5.2,2.7c-5.3,0-9.5-4-9.5-10.7
		C122.9,142,127,137.8,132.3,137.8L132.3,137.8z M134.1,145.3c1.7,0,3.2,1.3,3.2,3.2c0,1.9-1.2,3.3-3.2,3.3c-2.1,0-3.3-1.4-3.3-3.3
		C130.8,146.6,132.4,145.3,134.1,145.3L134.1,145.3z"/>
	<path class="st0" d="M101.7,137.8c-1.8,0-3.7,0.7-5,2v-1.4h-8v20.4h8v-10.8c0-3.9,4.3-3.3,4.3-0.4v11.2h8.1v-10.8
		c0-3.9,4.4-3.3,4.4-0.4v11.2h8.2v-12.9c0-4.7-2.8-8-8.1-8c-2,0-4.2,0.9-5.5,2.6C106.8,138.5,104.8,137.8,101.7,137.8L101.7,137.8z"
		/>
	<path class="st0" d="M176.8,114.6h-8.2V135h8.2v-10.6c0-4.1,4.6-3.6,4.6-0.6V135h8.2v-12.9c0-4-2.2-8.1-7.5-8.1c-2,0-4,0.9-5.3,2.5
		V114.6L176.8,114.6z"/>
	<polygon class="st0" points="151.2,191.6 147.1,191.6 147.1,202.7 142.5,202.7 142.5,191.6 138.5,191.6 138.5,187.1 151.2,187.1 
		151.2,191.6 	"/>
	<path class="st0" d="M132.6,194.1h-0.7v5H127v-15.7h6.9c3.9,0,6.3,2.1,6.3,5.4c0,2-0.7,3.7-2.5,4.7l3.3,5.6h-5.5L132.6,194.1
		L132.6,194.1z M131.8,190.4h1.4c1.3,0,2-0.6,2-1.6c0-1-0.8-1.6-2-1.6h-1.4V190.4L131.8,190.4z"/>
	<path class="st0" d="M157.1,109.3c6.2,0,11,4.5,10.2,12.7h-13.6c0.7,1.8,2.6,2.4,4.1,2.4c1.6,0,2.8-0.5,4.3-1.6l4.9,4.7
		c-2.3,2.6-5.5,3.5-9.8,3.5c-5.9,0-10.9-3.9-10.9-10.7C146.5,113.5,151.4,109.3,157.1,109.3L157.1,109.3z M160.2,117.9
		c-0.4-1.6-1.6-2.5-3.2-2.5c-1.3,0-2.5,0.9-3.1,2.5H160.2L160.2,117.9z"/>
	<path class="st0" d="M196.9,137.7c6.2,0,11,4.5,10.2,12.7h-13.6c0.7,1.8,2.6,2.4,4.1,2.4c1.6,0,2.8-0.5,4.3-1.6l4.9,4.7
		c-2.3,2.6-5.5,3.5-9.8,3.5c-5.9,0-10.9-3.9-10.9-10.7C186.2,141.9,191.1,137.7,196.9,137.7L196.9,137.7z M199.9,146.3
		c-0.4-1.6-1.6-2.5-3.2-2.5c-1.3,0-2.5,0.9-3.1,2.5H199.9L199.9,146.3z"/>
	<path class="st0" d="M217,137.8c3.2,0,6.1,1,8.3,2.5l-3.1,5c-2.3-1.2-4.7-1.6-5.6-1.6c-0.6,0-1.4,0.4-1.4,0.8
		c0,0.6,0.4,0.8,1.3,0.9c5.4,0,9.5,1.6,9.5,6.8c0,3.9-3.8,7.3-9.3,7.3c-2.8,0-7.2-0.8-9.2-2.8l3.3-5.4c2.1,1.4,3.8,2,5.8,2
		c1.1,0,1.9-0.4,1.9-1c0-0.6-0.3-0.7-1.6-0.7c-4,0.2-8.9-2.1-8.9-6.7C208,141.1,212.1,137.8,217,137.8L217,137.8z"/>
</g>
</svg>
