<?xml version="1.0" encoding="utf-8"?>
<!-- Generator: Adobe Illustrator 25.0.0, SVG Export Plug-In . SVG Version: 6.00 Build 0)  -->
<svg version="1.1" id="Layer_1" xmlns="http://www.w3.org/2000/svg" xmlns:xlink="http://www.w3.org/1999/xlink" x="0px" y="0px"
	 viewBox="0 0 841.9 595.3" style="enable-background:new 0 0 841.9 595.3;" xml:space="preserve">
<style type="text/css">
	.st0{clip-path:url(#SVGID_2_);}
	.st1{clip-path:url(#SVGID_4_);}
	.st2{clip-path:url(#SVGID_6_);}
	.st3{clip-path:url(#SVGID_8_);fill:url(#SVGID_9_);}
	.st4{clip-path:url(#SVGID_11_);}
	.st5{clip-path:url(#SVGID_13_);fill:url(#SVGID_14_);}
	.st6{clip-path:url(#SVGID_16_);}
	.st7{clip-path:url(#SVGID_18_);fill:url(#SVGID_19_);}
	.st8{clip-path:url(#SVGID_2_);fill:#656632;}
	.st9{clip-path:url(#SVGID_2_);fill:none;stroke:#FFFFFF;stroke-width:0.179;}
</style>
<g>
	<defs>
		<rect id="SVGID_1_" x="17.2" y="103" width="801.8" height="388.9"/>
	</defs>
	<clipPath id="SVGID_2_">
		<use xlink:href="#SVGID_1_"  style="overflow:visible;"/>
	</clipPath>
	<g class="st0">
		<defs>
			<path id="SVGID_3_" d="M813.9,429.2c-29.1,4.3-50.8,22.4-53.3,53.3H77.4c-0.7-32.7-20.6-49-53.3-53.3V156.3
				c32.7-6.1,45.4-11.6,53.3-53.3h683.2c2.4,34.5,20.6,50.8,53.3,53.3V429.2"/>
		</defs>
		<clipPath id="SVGID_4_">
			<use xlink:href="#SVGID_3_"  style="overflow:visible;"/>
		</clipPath>
		<g class="st1">
			<defs>
				<rect id="SVGID_5_" x="-96.4" y="103.1" width="1076.9" height="527.7"/>
			</defs>
			<clipPath id="SVGID_6_">
				<use xlink:href="#SVGID_5_"  style="overflow:visible;"/>
			</clipPath>
			<g class="st2">
				<defs>
					<rect id="SVGID_7_" x="24" y="103.1" width="790" height="379.6"/>
				</defs>
				<clipPath id="SVGID_8_">
					<use xlink:href="#SVGID_7_"  style="overflow:visible;"/>
				</clipPath>
				
					<linearGradient id="SVGID_9_" gradientUnits="userSpaceOnUse" x1="118.2488" y1="694.7717" x2="126.8305" y2="694.7717" gradientTransform="matrix(16.3853 61.1507 94.495 -25.3199 -67241.3984 10390.6377)">
					<stop  offset="0" style="stop-color:#F9E743"/>
					<stop  offset="1" style="stop-color:#C0A333"/>
				</linearGradient>
				<polygon class="st3" points="761.1,-94.4 908.9,457.2 76.9,680.2 -70.9,128.5 				"/>
			</g>
		</g>
	</g>
	<g class="st0">
		<defs>
			<path id="SVGID_10_" d="M777,411.2c-26.3,3.7-46.1,19.5-48.3,46.3H109.3c-0.6-28.4-18.7-42.6-48.3-46.3V174.3
				c29.6-5.3,41.2-10,48.3-46.3h619.4c2.2,29.9,18.7,44.1,48.3,46.3V411.2"/>
		</defs>
		<clipPath id="SVGID_11_">
			<use xlink:href="#SVGID_10_"  style="overflow:visible;"/>
		</clipPath>
		<g class="st4">
			<defs>
				<rect id="SVGID_12_" x="60.9" y="128" width="716.1" height="329.4"/>
			</defs>
			<clipPath id="SVGID_13_">
				<use xlink:href="#SVGID_12_"  style="overflow:visible;"/>
			</clipPath>
			
				<linearGradient id="SVGID_14_" gradientUnits="userSpaceOnUse" x1="107.3809" y1="690.1187" x2="115.9647" y2="690.1187" gradientTransform="matrix(14.4283 -53.8473 -85.4254 -22.8897 57761.4766 22102.2832)">
				<stop  offset="0" style="stop-color:#F9E743"/>
				<stop  offset="1" style="stop-color:#C0A333"/>
			</linearGradient>
			<polygon class="st5" points="-21.4,435.4 108.9,-51 859.4,150.1 729,636.5 			"/>
		</g>
	</g>
	<g class="st0">
		<defs>
			<path id="SVGID_15_" d="M768,403.9c-25.7,3.5-44.9,18.3-47.1,43.4H117c-0.6-26.6-18.2-40-47.1-43.4V181.5
				c28.9-5,40.1-9.4,47.1-43.4h603.9c2.2,28.1,18.2,41.5,47.1,43.4V403.9"/>
		</defs>
		<clipPath id="SVGID_16_">
			<use xlink:href="#SVGID_15_"  style="overflow:visible;"/>
		</clipPath>
		<g class="st6">
			<defs>
				<rect id="SVGID_17_" x="69.9" y="138.1" width="698.1" height="309.3"/>
			</defs>
			<clipPath id="SVGID_18_">
				<use xlink:href="#SVGID_17_"  style="overflow:visible;"/>
			</clipPath>
			
				<linearGradient id="SVGID_19_" gradientUnits="userSpaceOnUse" x1="119.4309" y1="694.9484" x2="128.0132" y2="694.9484" gradientTransform="matrix(13.7214 51.2089 83.0502 -22.2532 -58994.2109 9422.0986)">
				<stop  offset="0" style="stop-color:#F9E743"/>
				<stop  offset="1" style="stop-color:#C0A333"/>
			</linearGradient>
			<polygon class="st7" points="721.3,-36.4 845.3,426.7 116.7,621.9 -7.4,158.8 			"/>
		</g>
	</g>
	<polygon class="st8" points="-64.4,587.3 -84.7,587.3 -88.5,607.7 -65.6,607.7 -66.8,613.6 -96.5,613.6 -85.9,557.7 -57.4,557.7 
		-58.6,563.6 -80.1,563.6 -83.5,581.5 -63.2,581.5 	"/>
	<path class="st8" d="M-27.1,578.6c-1-0.3-2.4-0.6-4.7-0.6c-10.4,0-18.9,10.8-18.9,22c0,4.5,1.6,8.9,6.8,8.9
		c5.8,0,12.6-7.5,14.5-18.1L-27.1,578.6z M-31.4,613.6c0-2.4,0.4-6.2,0.9-10.4h-0.2c-4.4,8.4-9.9,11.3-15.6,11.3
		c-7.1,0-11.5-5.6-11.5-13.3c0-14,10.3-28.7,27.7-28.7c3.8,0,8,0.7,10.8,1.5l-4.1,21c-1.3,7-1.8,14.1-1.7,18.6H-31.4z"/>
	<path class="st8" d="M-14.9,613.6l4.9-25.9c1-5.2,1.6-10.5,2-14.3h6.1c-0.2,2.8-0.6,5.5-1.1,8.7h0.2c2.7-5.5,6.9-9.6,12.3-9.6
		c0.7,0,1.4,0.1,2,0.2l-1.3,6.8c-0.5-0.1-1.2-0.2-1.9-0.2c-5.9,0-11.2,7.2-12.9,16.5L-8,613.6H-14.9z"/>
	<path class="st8" d="M30.8,563.9l-1.8,9.6h9.6l-1.1,5.4h-9.6l-3.6,19.6c-0.5,2.2-0.8,4.3-0.8,6.4c0,2.4,1.2,3.9,3.8,3.9
		c1.2,0,2.3-0.1,3.2-0.3l-0.3,5.4c-1.2,0.5-3.3,0.7-5.3,0.7c-6.1,0-8.5-3.6-8.5-7.8c0-2.3,0.3-4.6,0.9-7.5l3.9-20.3h-5.7l1-5.4h5.7
		l1.4-7.4L30.8,563.9z"/>
	<path class="st8" d="M39,613.6l11.2-58.9h6.9l-5,25.8h0.2c3.4-4.9,8.3-8,14.3-8c4.6,0,9.9,2.7,9.9,10.8c0,2.1-0.2,4.7-0.7,6.7
		l-4.5,23.6h-6.9l4.5-23.2c0.2-1.4,0.5-3.3,0.5-5.5c0-3.6-1.7-6.5-6.2-6.5c-5.3,0-12,6.2-13.7,15.2l-3.7,20.2H39z"/>
	<polygon class="st8" points="98.7,556.2 93.5,576.3 89.1,576.3 91.5,556.2 	"/>
	<path class="st8" d="M97.4,606.7c1.8,1.2,5.3,2.5,8.6,2.5c4.6,0,7.6-3,7.6-6.5c0-3.1-1.4-5.1-5.6-7.5c-4.6-2.6-7.2-6.1-7.2-10.2
		c0-7,6.1-12.4,14.6-12.4c3.6,0,6.8,1,8.3,2l-1.9,5.2c-1.4-0.8-3.9-1.8-6.9-1.8c-4.2,0-7.2,2.7-7.2,6.1c0,2.9,1.9,4.7,5.6,6.7
		c4.5,2.6,7.5,6.1,7.5,10.6c0,8.5-6.8,13.2-15.3,13.2c-4.3-0.1-8.1-1.3-9.9-2.7L97.4,606.7z"/>
	<path class="st8" d="M156.1,581.4h5.1c8,0,14.2-4.1,14.2-10.9c0-5.3-4.1-7.6-10.1-7.6c-2.6,0-4.6,0.2-5.7,0.5L156.1,581.4z
		 M151.1,608.1c1.7,0.3,3.7,0.3,5.6,0.3c8.1,0.1,15.7-3.4,15.7-12.4c0-6.5-5.6-9.4-11.8-9.4H155L151.1,608.1z M153.6,558.6
		c3.5-0.7,7.5-1.2,12-1.2c5.7,0,10,1.2,12.9,3.8c2.7,2.2,4.1,5.1,4.1,8.7c0,7-5.7,12.3-12,13.9v0.2c5.1,1.5,9.2,5.7,9.2,12.4
		c0,5.8-3.1,10.3-6.7,13c-4.5,3.3-10.6,4.6-18.2,4.6c-4.7,0-9-0.3-11.5-0.8L153.6,558.6z"/>
	<path class="st8" d="M198.8,566.1c-2.4,0-4.1-1.9-4.1-4.5c0.1-2.7,2.2-4.9,4.7-4.9c2.6,0,4.3,1.9,4.3,4.5
		C203.7,564.1,201.6,566.1,198.8,566.1L198.8,566.1z M185.9,613.6l7.6-40.1h6.9l-7.6,40.1H185.9z"/>
	<path class="st8" d="M236.2,579.4c-1.3-0.7-3.8-1.4-6.6-1.4c-10,0-17,10.5-17,20.5c-0.1,4.5,1.6,9.6,7.7,9.6
		c5.9,0,11.9-7.5,13.3-15.3L236.2,579.4z M205.3,622.7c2.4,1.6,6.5,2.7,10.6,2.7c6.8,0,12.1-3.4,14.4-14.3l1.3-6.1h-0.2
		c-3.6,5.7-8.5,8.5-13.9,8.5c-8.1,0-12.3-6.8-12.3-13.9c0-13.7,9.9-27.1,25.4-27.1c4.6,0,9.8,1.3,12.9,2.8l-6.2,33.2
		c-1.6,8.5-3.9,14.3-8,18c-4.1,3.4-9.4,4.4-14,4.4c-4.9,0-9.5-1.2-12-2.8L205.3,622.7z"/>
	<path class="st8" d="M279.6,579.4c-1.3-0.7-3.8-1.4-6.6-1.4c-10,0-17,10.5-17,20.5c-0.1,4.5,1.6,9.6,7.7,9.6
		c5.9,0,11.9-7.5,13.3-15.3L279.6,579.4z M248.8,622.7c2.4,1.6,6.5,2.7,10.6,2.7c6.8,0,12.1-3.4,14.4-14.3l1.3-6.1H275
		c-3.6,5.7-8.5,8.5-13.9,8.5c-8.1,0-12.3-6.8-12.3-13.9c0-13.7,10-27.1,25.4-27.1c4.6,0,9.8,1.3,12.9,2.8l-6.2,33.2
		c-1.6,8.5-3.9,14.3-8,18c-4.1,3.4-9.5,4.4-14,4.4c-4.9,0-9.5-1.2-12-2.8L248.8,622.7z"/>
	<path class="st8" d="M319.2,583c0-3.2-2.5-5.1-6.1-5.1c-6.5,0-11.4,6.4-13.1,12.7C310.8,590.8,319.2,589.3,319.2,583L319.2,583z
		 M320.7,611.4c-3,1.7-7.9,3.2-13.3,3.2c-10.6,0-15.3-7.3-15.3-16.2c0-12.1,9-25.8,21.9-25.8c7.6,0,11.8,4.6,11.8,10.4
		c0,10.5-11.9,13.3-26.7,13c-0.3,1.7-0.1,5.5,0.8,7.6c1.6,3.7,4.8,5.4,9,5.4c4.7,0,8.3-1.4,10.8-2.7L320.7,611.4z"/>
	<path class="st8" d="M329.7,606.7c1.8,1.2,5.3,2.5,8.6,2.5c4.6,0,7.6-3,7.6-6.5c0-3.1-1.4-5.1-5.6-7.5c-4.6-2.6-7.2-6.1-7.2-10.2
		c0-7,6.1-12.4,14.6-12.4c3.6,0,6.8,1,8.3,2l-1.9,5.2c-1.4-0.8-3.9-1.8-6.9-1.8c-4.2,0-7.2,2.7-7.2,6.1c0,2.9,1.9,4.7,5.5,6.7
		c4.5,2.6,7.5,6.1,7.5,10.6c0,8.5-6.8,13.2-15.3,13.2c-4.3-0.1-8.1-1.3-9.9-2.7L329.7,606.7z"/>
	<path class="st8" d="M378,563.9l-1.8,9.6h9.6l-1.1,5.4h-9.6l-3.6,19.6c-0.5,2.2-0.8,4.3-0.8,6.4c0,2.4,1.2,3.9,3.8,3.9
		c1.2,0,2.3-0.1,3.2-0.3l-0.3,5.4c-1.2,0.5-3.3,0.7-5.3,0.7c-6.1,0-8.5-3.6-8.5-7.8c0-2.3,0.3-4.6,0.9-7.5l3.9-20.3h-5.7l1-5.4h5.7
		l1.4-7.4L378,563.9z"/>
	<path class="st8" d="M448.3,613.6l4-30.2c0.7-5.3,2-13.5,3-18.9h-0.2c-2.6,5.6-5.7,12.3-8.7,18l-16.7,30.7h-5.2l-4.1-30.1
		c-0.8-6.5-1.4-12.9-1.7-18.7h-0.3c-1.2,5.1-2.9,13.6-4.2,18.9l-7.6,30.2H400l14.5-55.9h8.8l4.4,32.1c0.6,4.7,1.2,9.8,1.3,14h0.2
		c1.7-4.2,4.1-9.2,6.5-13.8l17.2-32.3h9l-7.1,55.9H448.3z"/>
	<path class="st8" d="M482.9,609c8.1,0,14.3-10.4,14.3-19.8c0-4.6-2.2-11.2-9.4-11.2c-8.6,0-14.3,10.5-14.3,19.7
		C473.5,604.3,477.1,609,482.9,609L482.9,609z M482.1,614.5c-10,0-15.7-7.5-15.7-16.5c0-13.3,9.2-25.4,22.2-25.4
		c10.9,0,15.8,8.2,15.8,16.7C504.4,601.7,495.6,614.5,482.1,614.5L482.1,614.5z"/>
	<path class="st8" d="M517.4,573.5l3.5,22.9c0.6,4.6,1.2,7.7,1.2,9.9h0.2c0.9-2.2,2-4.8,4.3-9.4l12.2-23.4h7.5l-22.3,40.1h-6.7
		l-7-40.1H517.4z"/>
	<path class="st8" d="M559,566.1c-2.4,0-4.1-1.9-4.1-4.5c0.1-2.7,2.2-4.9,4.7-4.9c2.6,0,4.3,1.9,4.3,4.5
		C563.9,564.1,561.8,566.1,559,566.1L559,566.1z M546.1,613.6l7.6-40.1h6.9l-7.6,40.1H546.1z"/>
	<path class="st8" d="M592.6,583c0-3.2-2.5-5.1-6.1-5.1c-6.6,0-11.4,6.4-13.1,12.7C584.1,590.8,592.6,589.3,592.6,583L592.6,583z
		 M594.1,611.4c-3,1.7-7.9,3.2-13.3,3.2c-10.6,0-15.3-7.3-15.3-16.2c0-12.1,9-25.8,21.9-25.8c7.6,0,11.8,4.6,11.8,10.4
		c0,10.5-11.9,13.3-26.7,13c-0.3,1.7-0.1,5.5,0.8,7.6c1.6,3.7,4.8,5.4,8.9,5.4c4.7,0,8.3-1.4,10.8-2.7L594.1,611.4z"/>
	<path class="st8" d="M626,607.9c2.5,0.3,5.1,0.4,7.2,0.4c8.9,0,15.3-2.6,20-7.4c5-5.1,7.6-13,7.6-21c0-9.7-4.8-16.9-18.7-16.9
		c-2.6,0-5.7,0.2-7.7,0.6L626,607.9z M628.5,558.6c4.3-0.8,9-1.2,13.8-1.2c9.4,0,16.6,2.6,20.6,7.3c3.1,3.1,5.3,8.1,5.3,15
		c0,10-4.1,20.4-11.2,26.5c-6.5,5.4-14.6,7.8-25.4,7.8c-4.9,0-9.9-0.2-13.5-0.7L628.5,558.6z"/>
	<path class="st8" d="M702.6,578.6c-1-0.3-2.4-0.6-4.7-0.6c-10.4,0-18.9,10.8-18.9,22c0,4.5,1.6,8.9,6.8,8.9
		c5.8,0,12.6-7.5,14.5-18.1L702.6,578.6z M698.2,613.6c0-2.4,0.4-6.2,0.9-10.4H699c-4.4,8.4-10,11.3-15.6,11.3
		c-7.1,0-11.5-5.6-11.5-13.3c0-14,10.3-28.7,27.7-28.7c3.8,0,8,0.7,10.8,1.5l-4.1,21c-1.3,7-1.8,14.1-1.7,18.6H698.2z"/>
	<path class="st8" d="M732.6,563.9l-1.8,9.6h9.6l-1.1,5.4h-9.6l-3.6,19.6c-0.5,2.2-0.8,4.3-0.8,6.4c0,2.4,1.2,3.9,3.8,3.9
		c1.2,0,2.3-0.1,3.2-0.3l-0.3,5.4c-1.2,0.5-3.3,0.7-5.3,0.7c-6.1,0-8.5-3.6-8.5-7.8c0-2.3,0.3-4.6,0.9-7.5l3.9-20.3h-5.7l1-5.4h5.7
		l1.4-7.4L732.6,563.9z"/>
	<path class="st8" d="M771.8,578.6c-1-0.3-2.4-0.6-4.7-0.6c-10.4,0-18.9,10.8-18.9,22c0,4.5,1.6,8.9,6.8,8.9
		c5.8,0,12.6-7.5,14.5-18.1L771.8,578.6z M767.4,613.6c0-2.4,0.4-6.2,0.9-10.4h-0.2c-4.4,8.4-10,11.3-15.6,11.3
		c-7.1,0-11.5-5.6-11.5-13.3c0-14,10.3-28.7,27.7-28.7c3.8,0,8,0.7,10.8,1.5l-4.1,21c-1.3,7-1.8,14.1-1.7,18.6H767.4z"/>
	<path class="st8" d="M793.1,598.1c-0.3,1.4-0.6,3-0.5,5.1c0,3.8,2.2,5.9,6.5,5.9c10.4,0,16.7-12.3,16.7-21.3c0-5-2.2-9.5-7.6-9.5
		c-6,0-12.1,6.1-14.1,15.6L793.1,598.1z M801.8,554.8l-5.3,26h0.2c3.6-5.4,8.7-8.2,14.1-8.2c8.8,0,12.1,7.3,12.1,14.4
		c0,12.3-8.9,27.5-25,27.5c-7,0-12.3-2.9-12.3-10.3c0-2,0.3-4.4,0.8-6.3l8.6-43.2H801.8z"/>
	<path class="st8" d="M858.7,578.6c-1-0.3-2.4-0.6-4.7-0.6c-10.4,0-18.9,10.8-18.9,22c0,4.5,1.6,8.9,6.8,8.9
		c5.8,0,12.6-7.5,14.5-18.1L858.7,578.6z M854.3,613.6c0-2.4,0.4-6.2,0.9-10.4h-0.2c-4.4,8.4-10,11.3-15.6,11.3
		c-7.1,0-11.5-5.6-11.5-13.3c0-14,10.3-28.7,27.7-28.7c3.8,0,8,0.7,10.8,1.5l-4.1,21c-1.3,7-1.8,14.1-1.7,18.6H854.3z"/>
	<path class="st8" d="M871.3,606.7c1.8,1.2,5.3,2.5,8.6,2.5c4.6,0,7.6-3,7.6-6.5c0-3.1-1.4-5.1-5.6-7.5c-4.6-2.6-7.2-6.1-7.2-10.2
		c0-7,6.1-12.4,14.6-12.4c3.6,0,6.8,1,8.3,2l-1.9,5.2c-1.4-0.8-3.9-1.8-6.9-1.8c-4.2,0-7.2,2.7-7.2,6.1c0,2.9,1.9,4.7,5.5,6.7
		c4.5,2.6,7.5,6.1,7.5,10.6c0,8.5-6.8,13.2-15.3,13.2c-4.3-0.1-8.1-1.3-10-2.7L871.3,606.7z"/>
	<path class="st8" d="M929.2,583c0-3.2-2.5-5.1-6.1-5.1c-6.6,0-11.4,6.4-13.1,12.7C920.8,590.8,929.2,589.3,929.2,583L929.2,583z
		 M930.7,611.4c-3,1.7-7.9,3.2-13.3,3.2c-10.6,0-15.3-7.3-15.3-16.2c0-12.1,9-25.8,21.9-25.8c7.6,0,11.8,4.6,11.8,10.4
		c0,10.5-11.9,13.3-26.7,13c-0.3,1.7-0.1,5.5,0.8,7.6c1.6,3.7,4.8,5.4,9,5.4c4.7,0,8.3-1.4,10.8-2.7L930.7,611.4z"/>
	<rect x="143.7" y="181.3" class="st0" width="56.7" height="218.3"/>
	<rect x="143.7" y="181.3" class="st9" width="56.7" height="218.3"/>
	<path class="st0" d="M398.4,181.3v218.3h-49.5l-0.2-147.4l-19.7,147.4h-35.4l-20.6-144.2l-0.2,144.2h-49.5V181.3h73.4
		c1.9,13.3,4.2,28.8,6.8,46.5l8.1,55.4l13.1-102H398.4z"/>
	<path class="st9" d="M398.4,181.3v218.3h-49.5l-0.2-147.4l-19.7,147.4h-35.4l-20.6-144.2l-0.2,144.2h-49.5V181.3h73.4
		c1.9,13.3,4.2,28.8,6.8,46.5l8.1,55.4l13.1-102H398.4z"/>
	<path class="st0" d="M477.8,218.5v143.9c8.1,0,13.1-1.6,14.9-4.9c1.8-3.3,2.8-12.2,2.8-26.8v-85c0-9.9-0.3-16.3-0.9-19
		c-0.6-2.8-2-4.8-4.2-6.2C488.1,219.2,483.9,218.5,477.8,218.5 M421,181.3h42.4c27.4,0,45.9,1.3,55.5,3.8c9.6,2.5,17,6.7,22,12.4
		c5,5.8,8.1,12.2,9.4,19.2c1.3,7.1,1.9,20.9,1.9,41.6v76.5c0,19.6-0.9,32.7-2.7,39.3c-1.9,6.6-5.1,11.8-9.6,15.5
		c-4.6,3.7-10.2,6.3-17,7.8c-6.7,1.5-16.8,2.2-30.4,2.2H421V181.3z"/>
	<path class="st9" d="M477.8,218.5v143.9c8.1,0,13.1-1.6,14.9-4.9c1.8-3.3,2.8-12.2,2.8-26.8v-85c0-9.9-0.3-16.3-0.9-19
		c-0.6-2.8-2-4.8-4.2-6.2C488.1,219.2,483.9,218.5,477.8,218.5z M421,181.3h42.4c27.4,0,45.9,1.3,55.5,3.8c9.6,2.5,17,6.7,22,12.4
		c5,5.8,8.1,12.2,9.4,19.2c1.3,7.1,1.9,20.9,1.9,41.6v76.5c0,19.6-0.9,32.7-2.7,39.3c-1.9,6.6-5.1,11.8-9.6,15.5
		c-4.6,3.7-10.2,6.3-17,7.8c-6.7,1.5-16.8,2.2-30.4,2.2H421V181.3z"/>
	<path class="st0" d="M643,271.7c0-9.2-0.6-15.2-1.8-18.1c-1.2-2.8-3.5-4.2-6.9-4.2c-3.4,0-5.6,1.2-6.6,3.7c-1,2.5-1.5,8.7-1.5,18.6
		v76.9c0,9.6,0.6,15.7,1.7,18.4c1.1,2.7,3.4,4,6.8,4c3.4,0,5.7-1.4,6.8-4.2c1.1-2.8,1.6-9.5,1.6-20V271.7z M626.2,181.3v52
		c4.5-5.3,9.5-9.2,15.1-11.8c5.6-2.6,11.6-3.9,18.1-3.9c7.5,0,14,1.2,19.5,3.5c5.5,2.3,9.7,5.6,12.6,9.8c2.9,4.2,4.6,8.4,5.2,12.4
		c0.6,4,0.9,12.7,0.9,25.8v80.6c0,13.1-0.9,22.9-2.7,29.3c-1.8,6.4-5.9,12-12.4,16.7c-6.5,4.7-14.2,7-23.2,7c-6.4,0-12.4-1.4-18-4.2
		c-5.6-2.8-10.6-7-15.2-12.6l-3.5,13.7h-50.8V181.3H626.2z"/>
	<path class="st9" d="M643,271.7c0-9.2-0.6-15.2-1.8-18.1c-1.2-2.8-3.5-4.2-6.9-4.2c-3.4,0-5.6,1.2-6.6,3.7c-1,2.5-1.5,8.7-1.5,18.6
		v76.9c0,9.6,0.6,15.7,1.7,18.4c1.1,2.7,3.4,4,6.8,4c3.4,0,5.7-1.4,6.8-4.2c1.1-2.8,1.6-9.5,1.6-20V271.7z M626.2,181.3v52
		c4.5-5.3,9.5-9.2,15.1-11.8c5.6-2.6,11.6-3.9,18.1-3.9c7.5,0,14,1.2,19.5,3.5c5.5,2.3,9.7,5.6,12.6,9.8c2.9,4.2,4.6,8.4,5.2,12.4
		c0.6,4,0.9,12.7,0.9,25.8v80.6c0,13.1-0.9,22.9-2.7,29.3c-1.8,6.4-5.9,12-12.4,16.7c-6.5,4.7-14.2,7-23.2,7c-6.4,0-12.4-1.4-18-4.2
		c-5.6-2.8-10.6-7-15.2-12.6l-3.5,13.7h-50.8V181.3H626.2z"/>
	<path class="st0" d="M718.4,206.3h2.1c2.4,0,4.5-0.9,4.5-3.2c0-1.6-1.2-3.2-4.5-3.2c-1,0-1.6,0.1-2.1,0.1V206.3z M718.4,216.6h-2.9
		v-18.5c1.5-0.2,3-0.4,5.2-0.4c2.8,0,4.6,0.6,5.8,1.4c1.1,0.8,1.7,2.1,1.7,3.8c0,2.4-1.6,3.9-3.6,4.5v0.1c1.6,0.3,2.7,1.8,3.1,4.5
		c0.4,2.9,0.9,4,1.2,4.6h-3.1c-0.4-0.6-0.9-2.3-1.2-4.7c-0.4-2.4-1.6-3.2-4-3.2h-2.1V216.6z M721.5,192.9c-7.3,0-13.3,6.3-13.3,14
		c0,7.9,6,14.1,13.3,14.1c7.4,0.1,13.3-6.2,13.3-14C734.9,199.2,729,192.9,721.5,192.9L721.5,192.9z M721.6,190.3
		c9.1,0,16.3,7.4,16.3,16.6c0,9.4-7.2,16.6-16.4,16.6c-9.1,0-16.4-7.3-16.4-16.6C705.1,197.7,712.5,190.3,721.6,190.3L721.6,190.3z"
		/>
	<path class="st8" d="M977.9,572l-0.7-10.6c-0.1-1.4,0-3,0-4.8H977c-0.4,1.6-1,3.5-1.5,5l-3.7,10.1h-2l-3.6-10.4
		c-0.5-1.4-0.9-3.1-1.3-4.8h-0.1c0,1.7,0,3.2-0.1,4.8L964,572h-2.6l1.4-17.6h3.5l3.4,9.6c0.4,1.3,0.8,2.8,1.2,4.4h0.1
		c0.4-1.6,0.8-3.2,1.2-4.5l3.5-9.5h3.4l1.3,17.6H977.9z M960.8,554.5v2.3h-5.4V572h-2.7v-15.3h-5.3v-2.3H960.8z"/>
</g>
</svg>
