<?xml version="1.0" encoding="utf-8"?>
<!-- Generator: Adobe Illustrator 25.0.0, SVG Export Plug-In . SVG Version: 6.00 Build 0)  -->
<svg version="1.1" id="Layer_1" xmlns="http://www.w3.org/2000/svg" xmlns:xlink="http://www.w3.org/1999/xlink" x="0px" y="0px"
	 viewBox="0 0 361.9 211.3" style="enable-background:new 0 0 361.9 211.3;" xml:space="preserve">
<style type="text/css">
	.st0{fill-rule:evenodd;clip-rule:evenodd;fill:#EF3B24;}
	.st1{fill-rule:evenodd;clip-rule:evenodd;fill:#FFFFFF;}
</style>
<g>
	<path class="st0" d="M207.3,75h-4.2V60.9h4.2V49.6h16.5v11.3h6.4V75h-6.4v10.9c0,1.2,1,2.2,2.2,2.2c1.6,0,4.4,0,5.8,0v14.3h-9.4
		c-8,0-15.1-5.2-15.1-15.1V75L207.3,75z"/>
	<path class="st0" d="M255.2,61.5c14.1-2.2,24.5,6.2,25.1,19.9c0,12.7-12.7,21.3-24.3,21.3c-11.9,0-21.9-8-21.9-20.3
		c0-7,3.4-12.5,9-16.1c-2,0-4,0.2-5.8,0.6c-0.8,0.2-0.8,0-0.2-1c2.2-3.2,5.4-4.2,8.8-3.6l-3.6-3l3-2.6l3.2,4.8
		c1.4-3.2,5.4-5.4,8.4-3c0.2,0.2,0.4,0.4,0.4,0.4c0,0.4-0.4,0.2-0.8,0.4c-1,0.6-1.4,1.4-1.4,2.6V61.5L255.2,61.5z"/>
	<polygon class="st0" points="140.6,120.8 231,120.8 231,211.3 140.6,211.3 	"/>
	<path class="st1" d="M183,138.1c21.9-3.4,38,9.6,38.8,30.8c0,19.7-19.5,33.2-37.8,33.2c-18.5,0-33.8-12.5-33.8-31.6
		c-0.2-10.9,5.4-19.5,13.9-25.1c-3,0-6,0.2-9,0.8c-1.2,0.2-1.2,0-0.2-1.6c3.4-4.8,8.4-6.6,13.7-5.6l-5.4-4.8l4.6-3.8l5,7.4
		c2-4.8,8.4-8.4,13.1-4.8c0.4,0.4,0.6,0.4,0.6,0.6c0,0.6-0.6,0.2-1.2,0.6C183.6,134.9,183,136.3,183,138.1L183,138.1L183,138.1z"/>
	<path class="st0" d="M118.3,11.9c12.9,0,22.9,7,22.9,21.5c0,14.7-10.1,21.5-22.9,21.5S95.3,47,95.3,33.4
		C95.3,19.7,105.4,11.9,118.3,11.9L118.3,11.9z M113.2,25.9c1,0.6,1.8,1.2,2.2,2.2c0.6,1.4,0.2,2.6-1.4,2.8c-1.4,0.2-2-0.2-2.8-1.4
		c-0.6-1-1.4-2.4-2.6-3c-0.8-0.4-1.8-0.4-2.6,0c-2.6,0.8-2.8,3.6-0.8,5.2c1,0.8,3.2,1.2,4.6,1.6c1,0.2,2,0.8,1.8,1.8
		c0,1-0.8,1.2-1.6,1.2c-0.6,0-1.2,0-1.8,0c-1.4,0-2.8-0.2-3.8,1c-0.8,1-1,2.6-0.4,3.8c1,2.2,3.8,2,5.4,0.8c0.8-0.6,1.4-1.4,2.2-2.2
		c1-1.4,3.2-1.2,3.4,0.6c0,1.6-1,3-0.6,4.8c0.4,3.4,6.8,3.2,6.8-0.4c0-1-0.6-2-1-3c-1-2.6,1.2-4,3-2c1.4,1.4,1.8,3,3.8,4
		c6.6,3.8,9-4.6,3-6.6c-1.8-0.6-3.6-0.6-5.2-1.2c-2.6-1-2-3.8-0.2-4.4c2.2-0.4,4.2,0.2,5.6-1.6c1.2-1.6,1-3.8,0-5.4
		c-1.6-2-5-1.6-6.2,0.8c-0.4,0.8-0.6,1.6-0.8,2.4c-0.6,1.6-2,2.4-3.6,1.6c-1.6-0.8-1.4-2.6-1-4c0.2-0.6,0.4-1.4,0.6-2
		c0.2-1.2,0-2.6-0.8-3.4c-1.8-1.8-5.2-1.2-6.2,1C111,22.7,111.6,24.9,113.2,25.9L113.2,25.9z"/>
	<path class="st0" d="M60.8,59.7c12.7,0,22.5,7,22.5,21.5c0,14.7-9.9,21.5-22.5,21.5s-22.5-7.6-22.5-21.3
		C38.2,67.5,48.1,59.7,60.8,59.7L60.8,59.7z M61,74c4,0,7,2.2,7,6.6c0,4.6-3,6.6-7,6.6s-7-2.4-7-6.6C53.7,76.4,56.9,74,61,74L61,74z
		"/>
	<path class="st0" d="M66.6,54.1H50.1V0H74c13.5,0,21.7,7.4,21.7,18.7c0,6.8-2.2,12.7-8.6,16.1l11.3,19.3H79.7L69.4,36.8h-2.6v17.3
		H66.6z M66.6,12.9v11.3h4.8c4.4,0,7-2.2,7-5.6c0-3.2-2.8-5.6-7-5.6L66.6,12.9L66.6,12.9z"/>
	<path class="st0" d="M176.6,27.1h-4.2V13.1h4.2V1.8H193v11.3h6.4v14.1H193V38c0,1.2,1,2.2,2.2,2.2c1.6,0,4.4,0,5.8,0v14.3h-9.4
		c-8,0-15.1-5.2-15.1-15.1V27.1L176.6,27.1z"/>
	<path class="st0" d="M146.6,27.1h-4.2V13.1h4.2V1.8h16.5v11.3h6.4v14.1h-6.4V38c0,1.2,1,2.2,2.2,2.2c1.6,0,4.4,0,5.8,0v14.3h-9.4
		c-8,0-15.1-5.2-15.1-15.1L146.6,27.1L146.6,27.1z"/>
	<polygon class="st0" points="43.9,63.7 30,63.7 30,102.1 14.1,102.1 14.1,63.7 0,63.7 0,48 43.9,48 	"/>
	<path class="st0" d="M173.5,59.7c4.2,0,8,2.2,10.5,5.6v-4.6h16.1v41H184v-4.4c-2.6,3.6-6.4,5.4-10.5,5.4c-10.7,0-19.1-8-19.1-21.5
		C154.6,68.1,162.9,59.7,173.5,59.7L173.5,59.7z M177.2,74.8c3.4,0,6.4,2.6,6.4,6.4c0,3.8-2.4,6.6-6.4,6.6c-4.2,0-6.6-2.8-6.6-6.6
		C170.5,77.4,173.7,74.8,177.2,74.8L177.2,74.8z"/>
	<path class="st0" d="M112,59.7c-3.6,0-7.4,1.4-10.1,4v-2.8H85.9v41H102V80.2c0-7.8,8.6-6.6,8.6-0.8v22.5h16.3V80.2
		c0-7.8,8.8-6.6,8.8-0.8v22.5h16.5V76c0-9.4-5.6-16.1-16.3-16.1c-4,0-8.4,1.8-11.1,5.2C122.3,61.1,118.3,59.7,112,59.7L112,59.7z"/>
	<path class="st0" d="M263,13.1h-16.5v41H263V32.8c0-8.2,9.2-7.2,9.2-1.2v22.5h16.5V28.1c0-8-4.4-16.3-15.1-16.3c-4,0-8,1.8-10.7,5
		V13.1L263,13.1z"/>
	<polygon class="st0" points="211.5,167.9 203.3,167.9 203.3,190.2 194,190.2 194,167.9 186,167.9 186,158.8 211.5,158.8 	"/>
	<path class="st0" d="M174.1,172.9h-1.4v10.1h-9.9v-31.6h13.9c7.8,0,12.7,4.2,12.7,10.9c0,4-1.4,7.4-5,9.4l6.6,11.3H180L174.1,172.9
		L174.1,172.9z M172.5,165.4h2.8c2.6,0,4-1.2,4-3.2s-1.6-3.2-4-3.2h-2.8V165.4L172.5,165.4z"/>
	<path class="st0" d="M223.4,2.4c12.5,0,22.1,9,20.5,25.5h-27.3c1.4,3.6,5.2,4.8,8.2,4.8c3.2,0,5.6-1,8.6-3.2l9.9,9.4
		c-4.6,5.2-11.1,7-19.7,7c-11.9,0-21.9-7.8-21.9-21.5C202.1,10.8,211.9,2.4,223.4,2.4L223.4,2.4z M229.6,19.7c-0.8-3.2-3.2-5-6.4-5
		c-2.6,0-5,1.8-6.2,5H229.6L229.6,19.7z"/>
	<path class="st0" d="M303.4,59.5c12.5,0,22.1,9,20.5,25.5h-27.3c1.4,3.6,5.2,4.8,8.2,4.8c3.2,0,5.6-1,8.6-3.2l9.9,9.4
		c-4.6,5.2-11.1,7-19.7,7c-11.9,0-21.9-7.8-21.9-21.5C281.9,67.9,291.7,59.5,303.4,59.5L303.4,59.5z M309.4,76.8
		c-0.8-3.2-3.2-5-6.4-5c-2.6,0-5,1.8-6.2,5H309.4L309.4,76.8z"/>
	<path class="st0" d="M343.8,59.7c6.4,0,12.3,2,16.7,5l-6.2,10.1c-4.6-2.4-9.4-3.2-11.3-3.2c-1.2,0-2.8,0.8-2.8,1.6
		c0,1.2,0.8,1.6,2.6,1.8c10.9,0,19.1,3.2,19.1,13.7c0,7.8-7.6,14.7-18.7,14.7c-5.6,0-14.5-1.6-18.5-5.6l6.6-10.9
		c4.2,2.8,7.6,4,11.7,4c2.2,0,3.8-0.8,3.8-2c0-1.2-0.6-1.4-3.2-1.4c-8,0.4-17.9-4.2-17.9-13.5C325.7,66.3,334,59.7,343.8,59.7
		L343.8,59.7z"/>
</g>
</svg>
